<svg xmlns="http://www.w3.org/2000/svg" viewBox="0 0 512 512"> <!--!Font Awesome Free 6.5.1 by @fontawesome - https://fontawesome.com License - https://fontawesome.com/license/free Copyright 2024 Fonticons, Inc.--><path d="M480 160H32c-17.7 0-32-14.3-32-32V64c0-17.7 14.3-32 32-32h448c17.7 0 32 14.3 32 32v64c0 17.7-14.3 32-32 32zm-48-88c-13.3 0-24 10.7-24 24s10.7 24 24 24 24-10.7 24-24-10.7-24-24-24zm-64 0c-13.3 0-24 10.7-24 24s10.7 24 24 24 24-10.7 24-24-10.7-24-24-24zm112 248H32c-17.7 0-32-14.3-32-32v-64c0-17.7 14.3-32 32-32h448c17.7 0 32 14.3 32 32v64c0 17.7-14.3 32-32 32zm-48-88c-13.3 0-24 10.7-24 24s10.7 24 24 24 24-10.7 24-24-10.7-24-24-24zm-64 0c-13.3 0-24 10.7-24 24s10.7 24 24 24 24-10.7 24-24-10.7-24-24-24zm112 248H32c-17.7 0-32-14.3-32-32v-64c0-17.7 14.3-32 32-32h448c17.7 0 32 14.3 32 32v64c0 17.7-14.3 32-32 32zm-48-88c-13.3 0-24 10.7-24 24s10.7 24 24 24 24-10.7 24-24-10.7-24-24-24zm-64 0c-13.3 0-24 10.7-24 24s10.7 24 24 24 24-10.7 24-24-10.7-24-24-24z"/></svg>
